<svg width="34" height="34" viewBox="0 0 34 34" fill="none" xmlns="http://www.w3.org/2000/svg">
<path d="M27 23.25C26.375 23.25 25.75 23 25.25 22.5L21.5 18.75C21 18.25 20.75 17.625 20.75 17C20.75 16.375 21 15.75 21.5 15.25L25.25 11.5C25.75 11 26.375 10.75 27 10.75C27.625 10.75 28.25 11 28.75 11.5L32.5 15.25C33 15.75 33.25 16.375 33.25 17C33.25 17.625 33 18.25 32.5 18.75L28.75 22.5C28.25 23 27.625 23.25 27 23.25ZM27 13.25L23.25 17L27 20.75L30.75 17L27 13.25ZM17 13.25C16.375 13.25 15.75 13 15.25 12.5L11.5 8.75C11 8.25 10.75 7.625 10.75 7C10.75 6.375 11 5.75 11.5 5.25L15.25 1.5C15.75 1 16.375 0.75 17 0.75C17.625 0.75 18.25 1 18.75 1.5L22.5 5.25C23 5.75 23.25 6.375 23.25 7C23.25 7.625 23 8.25 22.5 8.75L18.75 12.5C18.25 13 17.625 13.25 17 13.25ZM17 3.25L13.25 7L17 10.75L20.75 7L17 3.25ZM17 33.25C16.375 33.25 15.75 33 15.25 32.5L11.5 28.75C11 28.25 10.75 27.625 10.75 27C10.75 26.375 11 25.75 11.5 25.25L15.25 21.5C15.75 21 16.375 20.75 17 20.75C17.625 20.75 18.25 21 18.75 21.5L22.5 25.25C23 25.75 23.25 26.375 23.25 27C23.25 27.625 23 28.25 22.5 28.75L18.75 32.5C18.25 33 17.625 33.25 17 33.25ZM17 23.25L13.25 27L17 30.75L20.75 27L17 23.25ZM7 23.25C6.375 23.25 5.75 23 5.25 22.5L1.5 18.75C1 18.25 0.75 17.625 0.75 17C0.75 16.375 1 15.75 1.5 15.25L5.25 11.5C5.75 11 6.375 10.75 7 10.75C7.625 10.75 8.25 11 8.75 11.5L12.5 15.25C13 15.75 13.25 16.375 13.25 17C13.25 17.625 13 18.25 12.5 18.75L8.75 22.5C8.25 23 7.625 23.25 7 23.25ZM7 13.25L3.25 17L7 20.75L10.75 17L7 13.25Z" fill="white"/>
</svg>
