<svg width="32" height="32" viewBox="0 0 32 32" fill="none" xmlns="http://www.w3.org/2000/svg">
<path fill-rule="evenodd" clip-rule="evenodd" d="M18.7973 7.38659C20.696 5.10659 23.2107 3.33325 26.6667 3.33325C27.1971 3.33325 27.7058 3.54397 28.0809 3.91904C28.456 4.29411 28.6667 4.80282 28.6667 5.33325C28.6667 5.86368 28.456 6.37239 28.0809 6.74747C27.7058 7.12254 27.1971 7.33325 26.6667 7.33325C24.7907 7.33325 23.304 8.22659 21.8693 9.94659C20.3813 11.7333 19.1493 14.1706 17.7893 16.8933L17.728 17.0159C16.44 19.5933 15.02 22.4346 13.2027 24.6133C11.304 26.8933 8.78934 28.6666 5.33334 28.6666C4.80291 28.6666 4.2942 28.4559 3.91913 28.0808C3.54406 27.7057 3.33334 27.197 3.33334 26.6666C3.33334 26.1362 3.54406 25.6274 3.91913 25.2524C4.2942 24.8773 4.80291 24.6666 5.33334 24.6666C7.20934 24.6666 8.69601 23.7733 10.1307 22.0533C11.6187 20.2666 12.8507 17.8293 14.2107 15.1066L14.272 14.9839C15.56 12.4066 16.98 9.56525 18.7973 7.38659Z" fill="white"/>
</svg>
