<svg width="40" height="40" viewBox="0 0 40 40" fill="none" xmlns="http://www.w3.org/2000/svg">
<path d="M20.0833 36.6666C18.6945 36.6666 17.5139 36.1805 16.5417 35.2083C15.5695 34.236 15.0833 33.0555 15.0833 31.6666C15.0833 30.611 15.3889 29.6594 16 28.8116C16.6111 27.9638 17.3889 27.3599 18.3333 26.9999V16.3333L12.625 23.2499C12.8472 23.6388 13.0211 24.0488 13.1467 24.4799C13.2722 24.911 13.3345 25.3621 13.3333 25.8333C13.3333 27.2221 12.8472 28.4027 11.875 29.3749C10.9028 30.3471 9.72223 30.8333 8.33334 30.8333C6.94445 30.8333 5.7639 30.3471 4.79168 29.3749C3.81945 28.4027 3.33334 27.2221 3.33334 25.8333C3.33334 24.4444 3.81945 23.2638 4.79168 22.2916C5.7639 21.3194 6.94445 20.8333 8.33334 20.8333C8.6389 20.8333 8.93057 20.8544 9.20834 20.8966C9.48612 20.9388 9.7639 21.0149 10.0417 21.1249L17.2083 12.4583C16.5417 11.986 16.0072 11.3955 15.605 10.6866C15.2028 9.9777 15.0011 9.19325 15 8.33325C15 6.94436 15.4861 5.76381 16.4583 4.79159C17.4306 3.81936 18.6111 3.33325 20 3.33325C21.3889 3.33325 22.5695 3.81936 23.5417 4.79159C24.5139 5.76381 25 6.94436 25 8.33325C25 9.19436 24.7983 9.97936 24.395 10.6883C23.9917 11.3971 23.4572 11.9871 22.7917 12.4583L29.9583 21.1249C30.2361 21.0138 30.5139 20.9377 30.7917 20.8966C31.0695 20.8555 31.3611 20.8344 31.6667 20.8333C33.0556 20.8333 34.2361 21.3194 35.2083 22.2916C36.1806 23.2638 36.6667 24.4444 36.6667 25.8333C36.6667 27.2221 36.1806 28.4027 35.2083 29.3749C34.2361 30.3471 33.0556 30.8333 31.6667 30.8333C30.2778 30.8333 29.0972 30.3471 28.125 29.3749C27.1528 28.4027 26.6667 27.2221 26.6667 25.8333C26.6667 25.361 26.7295 24.9099 26.855 24.4799C26.9806 24.0499 27.1539 23.6399 27.375 23.2499L21.6667 16.3333V26.9166C22.6667 27.2499 23.4861 27.8471 24.125 28.7083C24.7639 29.5694 25.0833 30.5555 25.0833 31.6666C25.0833 33.0555 24.5972 34.236 23.625 35.2083C22.6528 36.1805 21.4722 36.6666 20.0833 36.6666ZM20.0833 33.3333C20.5556 33.3333 20.9511 33.1733 21.27 32.8533C21.5889 32.5333 21.7489 32.1377 21.75 31.6666C21.7511 31.1955 21.5911 30.7999 21.27 30.4799C20.9489 30.1599 20.5533 29.9999 20.0833 29.9999C19.6133 29.9999 19.2178 30.1599 18.8967 30.4799C18.5756 30.7999 18.4156 31.1955 18.4167 31.6666C18.4178 32.1377 18.5778 32.5338 18.8967 32.8549C19.2156 33.176 19.6111 33.3355 20.0833 33.3333ZM8.33334 27.4999C8.80557 27.4999 9.20168 27.3399 9.52168 27.0199C9.84168 26.6999 10.0011 26.3044 10 25.8333C9.9989 25.3621 9.8389 24.9666 9.52001 24.6466C9.20112 24.3266 8.80557 24.1666 8.33334 24.1666C7.86112 24.1666 7.46557 24.3266 7.14668 24.6466C6.82779 24.9666 6.66779 25.3621 6.66668 25.8333C6.66557 26.3044 6.82557 26.7005 7.14668 27.0216C7.46779 27.3427 7.86334 27.5021 8.33334 27.4999ZM31.6667 27.4999C32.1389 27.4999 32.535 27.3399 32.855 27.0199C33.175 26.6999 33.3345 26.3044 33.3333 25.8333C33.3322 25.3621 33.1722 24.9666 32.8533 24.6466C32.5345 24.3266 32.1389 24.1666 31.6667 24.1666C31.1945 24.1666 30.7989 24.3266 30.48 24.6466C30.1611 24.9666 30.0011 25.3621 30 25.8333C29.9989 26.3044 30.1589 26.7005 30.48 27.0216C30.8011 27.3427 31.1967 27.5021 31.6667 27.4999ZM20 9.99992C20.4722 9.99992 20.8683 9.83992 21.1883 9.51992C21.5083 9.19992 21.6678 8.80436 21.6667 8.33325C21.6656 7.86214 21.5056 7.46659 21.1867 7.14659C20.8678 6.82659 20.4722 6.66659 20 6.66659C19.5278 6.66659 19.1322 6.82659 18.8133 7.14659C18.4945 7.46659 18.3345 7.86214 18.3333 8.33325C18.3322 8.80436 18.4922 9.20047 18.8133 9.52158C19.1345 9.8427 19.53 10.0021 20 9.99992Z" fill="white"/>
</svg>
