<svg width="40" height="40" viewBox="0 0 40 40" fill="none" xmlns="http://www.w3.org/2000/svg">
<path d="M5 30.8333V8.33325C5 7.00717 5.52678 5.7354 6.46447 4.79772C7.40215 3.86004 8.67392 3.33325 10 3.33325H33.3333C33.7754 3.33325 34.1993 3.50885 34.5118 3.82141C34.8244 4.13397 35 4.55789 35 4.99992V34.9999C35 35.4419 34.8244 35.8659 34.5118 36.1784C34.1993 36.491 33.7754 36.6666 33.3333 36.6666H10.8333C9.28624 36.6666 7.80251 36.052 6.70854 34.958C5.61458 33.8641 5 32.3803 5 30.8333ZM31.6667 33.3333V28.3333H10.8333C10.1703 28.3333 9.53441 28.5966 9.06557 29.0655C8.59672 29.5343 8.33333 30.1702 8.33333 30.8333C8.33333 31.4963 8.59672 32.1322 9.06557 32.601C9.53441 33.0699 10.1703 33.3333 10.8333 33.3333H31.6667ZM8.33333 25.5616C9.11474 25.1914 9.96867 24.9995 10.8333 24.9999H31.6667V6.66659H10C9.55797 6.66659 9.13405 6.84218 8.82149 7.15474C8.50893 7.4673 8.33333 7.89122 8.33333 8.33325V25.5616Z" fill="white"/>
</svg>
