<svg width="39" height="27" viewBox="0 0 39 27" fill="none" xmlns="http://www.w3.org/2000/svg">
<path d="M24.5231 13.8698C24.5231 21.0623 19.1363 26.893 12.4912 26.893C5.84627 26.893 0.459381 21.0623 0.459381 13.8698C0.459381 6.67722 5.84627 0.846504 12.4912 0.846504C19.1363 0.846504 24.5231 6.67722 24.5231 13.8698Z" fill="#3BAB48"/>
<path d="M38.3598 13.8698C38.3598 21.0623 32.9729 26.893 26.3279 26.893C19.6829 26.893 14.296 21.0623 14.296 13.8698C14.296 6.67722 19.6829 0.846504 26.3279 0.846504C32.9729 0.846504 38.3598 6.67722 38.3598 13.8698Z" fill="#622ACB"/>
<path d="M19.4096 3.21341C22.5024 5.5702 24.5231 9.46465 24.5231 13.8698C24.5231 18.2748 22.5021 22.1682 19.4096 24.525C16.317 22.1682 14.2961 18.2748 14.296 13.8698C14.296 9.46465 16.3167 5.5702 19.4096 3.21341Z" fill="#DEF2E7"/>
</svg>
