
      <svg data-logo="logo" xmlns="http://www.w3.org/2000/svg" viewBox="0 0 242 43">
        <g id="logogram" transform="translate(0, 1) rotate(0) "><path d="M40.7636 20.3C40.7636 31.3457 31.8093 40.3 20.7636 40.3C9.71798 40.3 0.763611 31.3457 0.763611 20.3C0.763611 9.2543 9.71798 0.299988 20.7636 0.299988C31.8093 0.299988 40.7636 9.2543 40.7636 20.3Z" fill="#6C59D2"/><path d="M63.7636 20.3C63.7636 31.3457 54.8092 40.3 43.7636 40.3C32.718 40.3 23.7636 31.3457 23.7636 20.3C23.7636 9.2543 32.718 0.299988 43.7636 0.299988C54.8092 0.299988 63.7636 9.2543 63.7636 20.3Z" fill="#34A586"/><path d="M32.2636 3.93488C37.4047 7.55424 40.7636 13.535 40.7636 20.3001C40.7636 27.0648 37.4042 33.044 32.2636 36.6634C27.123 33.044 23.7637 27.0648 23.7636 20.3001C23.7636 13.535 27.1225 7.55424 32.2636 3.93488Z" fill="#F7F6F4"/></g>
        <g id="logotype" transform="translate(70, 1)"><path fill="#fdfdff" d="M13.14 33L8.41 33L8.41 8.50L14.05 8.50L21.54 23.80L21.54 23.80L28.96 8.50L34.59 8.50L34.59 33L29.87 33L29.87 16.55L29.87 16.55L23.40 29.57L19.65 29.57L13.14 16.55L13.14 16.55L13.14 33ZM45.94 33.42L45.94 33.42Q43.28 33.42 41.23 32.28Q39.18 31.14 38.04 29.10Q36.91 27.05 36.91 24.35L36.91 24.35Q36.91 21.59 38.04 19.47Q39.18 17.35 41.21 16.15Q43.24 14.94 45.94 14.94L45.94 14.94Q48.56 14.94 50.52 16.09Q52.48 17.25 53.57 19.21Q54.65 21.17 54.65 23.66L54.65 23.66Q54.65 24.00 54.65 24.44Q54.65 24.88 54.58 25.34L54.58 25.34L40.27 25.34L40.27 22.46L49.89 22.46Q49.79 20.75 48.68 19.77Q47.58 18.79 45.94 18.79L45.94 18.79Q44.75 18.79 43.73 19.33Q42.72 19.88 42.14 20.99Q41.56 22.11 41.56 23.83L41.56 23.83L41.56 24.84Q41.56 26.28 42.10 27.35Q42.65 28.41 43.63 28.99Q44.61 29.57 45.90 29.57L45.90 29.57Q47.20 29.57 48.05 29.01Q48.91 28.45 49.33 27.57L49.33 27.57L54.16 27.57Q53.67 29.22 52.52 30.55Q51.36 31.88 49.68 32.65Q48.00 33.42 45.94 33.42ZM63.89 33.42L63.89 33.42Q61.48 33.42 59.69 32.65Q57.91 31.88 56.89 30.52Q55.88 29.15 55.74 27.43L55.74 27.43L60.43 27.43Q60.60 28.10 61.02 28.64Q61.44 29.18 62.14 29.50Q62.84 29.81 63.82 29.81L63.82 29.81Q64.77 29.81 65.36 29.55Q65.96 29.29 66.25 28.84Q66.55 28.38 66.55 27.89L66.55 27.89Q66.55 27.16 66.13 26.75Q65.71 26.35 64.91 26.11Q64.10 25.86 62.95 25.61L62.95 25.61Q61.69 25.37 60.48 25.00Q59.27 24.63 58.33 24.07Q57.38 23.52 56.82 22.64Q56.26 21.77 56.26 20.47L56.26 20.47Q56.26 18.89 57.10 17.65Q57.94 16.41 59.55 15.67Q61.16 14.94 63.44 14.94L63.44 14.94Q66.62 14.94 68.48 16.38Q70.33 17.81 70.68 20.33L70.68 20.33L66.24 20.33Q66.03 19.52 65.31 19.05Q64.59 18.58 63.40 18.58L63.40 18.58Q62.14 18.58 61.48 19.03Q60.81 19.49 60.81 20.23L60.81 20.23Q60.81 20.71 61.25 21.10Q61.69 21.48 62.49 21.75Q63.30 22.01 64.45 22.25L64.45 22.25Q66.48 22.67 68.02 23.22Q69.56 23.76 70.44 24.76Q71.31 25.75 71.31 27.64L71.31 27.64Q71.31 29.32 70.40 30.64Q69.49 31.95 67.83 32.69Q66.17 33.42 63.89 33.42ZM78.17 33L73.45 33L73.45 7.80L78.17 7.80L78.17 17.98L78.17 17.98Q79.05 16.58 80.50 15.76Q81.95 14.94 83.88 14.94L83.88 14.94Q86.08 14.94 87.59 15.87Q89.09 16.79 89.86 18.54Q90.63 20.29 90.63 22.88L90.63 22.88L90.63 33L85.94 33L85.94 23.30Q85.94 21.20 85.07 20.07Q84.19 18.93 82.30 18.93L82.30 18.93Q81.15 18.93 80.20 19.49Q79.26 20.05 78.71 21.12Q78.17 22.18 78.17 23.66L78.17 23.66L78.17 33ZM101.76 33.42L101.76 33.42Q99.10 33.42 97.02 32.51Q94.94 31.60 93.73 29.85Q92.52 28.10 92.49 25.61L92.49 25.61L97.49 25.61Q97.53 26.70 98.05 27.57Q98.58 28.45 99.50 28.96Q100.43 29.46 101.73 29.46L101.73 29.46Q102.85 29.46 103.67 29.10Q104.49 28.73 104.95 28.06Q105.40 27.40 105.40 26.49L105.40 26.49Q105.40 25.44 104.89 24.74Q104.39 24.04 103.49 23.55Q102.60 23.06 101.43 22.66Q100.26 22.25 98.96 21.80L98.96 21.80Q96.06 20.85 94.53 19.28Q93.01 17.70 93.01 15.11L93.01 15.11Q93.01 12.91 94.08 11.33Q95.15 9.76 97.04 8.92Q98.93 8.08 101.34 8.08L101.34 8.08Q103.83 8.08 105.70 8.94Q107.57 9.79 108.67 11.40Q109.78 13.01 109.81 15.18L109.81 15.18L104.77 15.18Q104.74 14.38 104.30 13.66Q103.86 12.94 103.09 12.51Q102.32 12.07 101.27 12.07L101.27 12.07Q100.36 12.03 99.61 12.35Q98.86 12.66 98.42 13.28Q97.98 13.89 97.98 14.80L97.98 14.80Q97.98 15.67 98.42 16.27Q98.86 16.86 99.63 17.30Q100.40 17.74 101.45 18.11Q102.50 18.47 103.72 18.86L103.72 18.86Q105.54 19.49 107.08 20.35Q108.62 21.20 109.53 22.57Q110.44 23.93 110.44 26.17L110.44 26.17Q110.44 28.10 109.43 29.75Q108.41 31.39 106.50 32.41Q104.60 33.42 101.76 33.42ZM117.23 40.70L112.51 40.70L112.51 15.36L116.71 15.36L117.23 17.81L117.23 17.81Q117.79 17.04 118.56 16.39Q119.33 15.74 120.40 15.34Q121.47 14.94 122.90 14.94L122.90 14.94Q125.39 14.94 127.28 16.16Q129.17 17.39 130.27 19.47Q131.37 21.55 131.37 24.21L131.37 24.21Q131.37 26.88 130.25 28.96Q129.13 31.04 127.24 32.23Q125.35 33.42 122.94 33.42L122.94 33.42Q120.98 33.42 119.56 32.70Q118.14 31.98 117.23 30.73L117.23 30.73L117.23 40.70ZM121.82 29.29L121.82 29.29Q123.22 29.29 124.28 28.66Q125.35 28.03 125.95 26.88Q126.54 25.72 126.54 24.21L126.54 24.21Q126.54 22.71 125.95 21.54Q125.35 20.36 124.28 19.72Q123.22 19.07 121.82 19.07L121.82 19.07Q120.45 19.07 119.38 19.72Q118.32 20.36 117.70 21.52Q117.09 22.67 117.09 24.18L117.09 24.18Q117.09 25.68 117.70 26.86Q118.32 28.03 119.38 28.66Q120.45 29.29 121.82 29.29ZM138.41 33L133.68 33L133.68 15.36L138.41 15.36L138.41 33ZM136.06 12.94L136.06 12.94Q134.80 12.94 133.98 12.19Q133.16 11.44 133.16 10.28L133.16 10.28Q133.16 9.13 133.98 8.38Q134.80 7.62 136.06 7.62L136.06 7.62Q137.36 7.62 138.18 8.38Q139.00 9.13 139.00 10.28L139.00 10.28Q139.00 11.44 138.18 12.19Q137.36 12.94 136.06 12.94ZM146.04 33L141.31 33L141.31 15.36L145.51 15.36L145.97 18.61L145.97 18.61Q146.60 17.46 147.56 16.65Q148.52 15.85 149.76 15.39Q151.01 14.94 152.51 14.94L152.51 14.94L152.51 19.95L150.90 19.95Q149.85 19.95 148.96 20.19Q148.07 20.43 147.40 20.98Q146.74 21.52 146.39 22.46Q146.04 23.41 146.04 24.84L146.04 24.84L146.04 33ZM161.96 33.42L161.96 33.42Q159.30 33.42 157.25 32.28Q155.21 31.14 154.07 29.10Q152.93 27.05 152.93 24.35L152.93 24.35Q152.93 21.59 154.07 19.47Q155.21 17.35 157.24 16.15Q159.27 14.94 161.96 14.94L161.96 14.94Q164.59 14.94 166.55 16.09Q168.51 17.25 169.59 19.21Q170.68 21.17 170.68 23.66L170.68 23.66Q170.68 24.00 170.68 24.44Q170.68 24.88 170.61 25.34L170.61 25.34L156.29 25.34L156.29 22.46L165.92 22.46Q165.81 20.75 164.71 19.77Q163.61 18.79 161.96 18.79L161.96 18.79Q160.77 18.79 159.76 19.33Q158.74 19.88 158.16 20.99Q157.59 22.11 157.59 23.83L157.59 23.83L157.59 24.84Q157.59 26.28 158.13 27.35Q158.67 28.41 159.65 28.99Q160.63 29.57 161.93 29.57L161.93 29.57Q163.22 29.57 164.08 29.01Q164.94 28.45 165.36 27.57L165.36 27.57L170.19 27.57Q169.70 29.22 168.54 30.55Q167.39 31.88 165.71 32.65Q164.03 33.42 161.96 33.42Z"/></g>
        
      </svg>
    