<svg viewBox="0 0 251 43" xmlns="http://www.w3.org/2000/svg" data-logo="logo">
        <g transform="translate(0, 1) rotate(0)" id="logogram"><path fill="#22C55E" d="M40.7636 20.3C40.7636 31.3457 31.8093 40.3 20.7636 40.3C9.71798 40.3 0.763611 31.3457 0.763611 20.3C0.763611 9.2543 9.71798 0.299988 20.7636 0.299988C31.8093 0.299988 40.7636 9.2543 40.7636 20.3Z"></path><path fill="#5B21B6" d="M63.7636 20.3C63.7636 31.3457 54.8092 40.3 43.7636 40.3C32.718 40.3 23.7636 31.3457 23.7636 20.3C23.7636 9.2543 32.718 0.299988 43.7636 0.299988C54.8092 0.299988 63.7636 9.2543 63.7636 20.3Z"></path><path fill="#0F172A" d="M32.2636 3.93488C37.4047 7.55424 40.7636 13.535 40.7636 20.3001C40.7636 27.0648 37.4042 33.044 32.2636 36.6634C27.123 33.044 23.7637 27.0648 23.7636 20.3001C23.7636 13.535 27.1225 7.55424 32.2636 3.93488Z"></path></g>
        <g transform="translate(70, 3.5)" id="logotype"><path d="M13.91 31L8.59 31L8.59 6.15L15.70 6.15L22.03 24.24L28.33 6.15L35.44 6.15L35.44 31L30.12 31L30.12 14.90L24.27 30.93L19.72 30.93L13.91 14.90L13.91 31ZM47.37 31.42L47.37 31.42Q44.50 31.42 42.38 30.21Q40.27 29.00 39.09 26.80Q37.92 24.59 37.92 21.62L37.92 21.62Q37.92 18.64 39.09 16.46Q40.27 14.27 42.37 13.04Q44.47 11.82 47.34 11.82L47.34 11.82Q50.14 11.82 52.20 13.04Q54.27 14.27 55.40 16.54Q56.54 18.82 56.54 21.97L56.54 21.97L56.54 23.02L43.35 23.02Q43.45 25.26 44.55 26.34Q45.66 27.43 47.48 27.43L47.48 27.43Q48.81 27.43 49.70 26.87Q50.59 26.31 50.98 25.16L50.98 25.16L56.26 25.47Q55.53 28.27 53.15 29.84Q50.77 31.42 47.37 31.42ZM43.35 19.80L43.35 19.80L51.15 19.80Q51.05 17.73 50.01 16.72Q48.98 15.70 47.34 15.70L47.34 15.70Q45.69 15.70 44.62 16.77Q43.56 17.84 43.35 19.80ZM66.73 31.42L66.73 31.42Q63.82 31.42 61.86 30.60Q59.90 29.77 58.87 28.36Q57.84 26.94 57.70 25.09L57.70 25.09L63.02 24.91Q63.26 26.24 64.14 26.98Q65.01 27.71 66.73 27.71L66.73 27.71Q68.13 27.71 68.91 27.25Q69.70 26.80 69.70 25.86L69.70 25.86Q69.70 25.26 69.42 24.86Q69.14 24.45 68.32 24.16Q67.50 23.86 65.89 23.61L65.89 23.61Q62.91 23.09 61.23 22.39Q59.55 21.69 58.85 20.57Q58.15 19.45 58.15 17.84L58.15 17.84Q58.15 15.14 60.23 13.48Q62.32 11.82 66.48 11.82L66.48 11.82Q69.14 11.82 70.94 12.66Q72.75 13.50 73.74 14.95Q74.74 16.41 74.99 18.26L74.99 18.26L69.70 18.47Q69.60 17.56 69.16 16.91Q68.72 16.27 68.06 15.90Q67.39 15.53 66.45 15.53L66.45 15.53Q65.05 15.53 64.29 16.11Q63.54 16.68 63.54 17.63L63.54 17.63Q63.54 18.33 63.87 18.77Q64.21 19.20 64.98 19.48Q65.75 19.77 67.04 19.94L67.04 19.94Q70.05 20.36 71.82 21.11Q73.59 21.86 74.36 22.98Q75.13 24.11 75.13 25.75L75.13 25.75Q75.13 27.57 74.08 28.83Q73.03 30.09 71.15 30.75Q69.28 31.42 66.73 31.42ZM82.55 31L77.30 31L77.30 6.15L82.55 6.15L82.55 16.61L81.85 16.61Q82.13 14.97 82.95 13.92Q83.77 12.87 85.01 12.34Q86.26 11.82 87.73 11.82L87.73 11.82Q89.83 11.82 91.23 12.73Q92.63 13.64 93.34 15.25Q94.06 16.86 94.06 18.92L94.06 18.92L94.06 31L88.81 31L88.81 20.18Q88.81 18.09 88.16 17.03Q87.52 15.98 85.98 15.98L85.98 15.98Q84.37 15.98 83.46 17.07Q82.55 18.16 82.55 20.32L82.55 20.32L82.55 31ZM107.75 31.56L107.75 31.56Q104.53 31.56 102.22 30.48Q99.91 29.39 98.61 27.43Q97.32 25.47 97.14 22.81L97.14 22.81L102.50 22.56Q102.71 24.04 103.35 25.07Q104.00 26.10 105.10 26.63Q106.21 27.15 107.82 27.15L107.82 27.15Q109.15 27.15 110.07 26.84Q111.00 26.52 111.49 25.87Q111.98 25.23 111.98 24.28L111.98 24.28Q111.98 23.41 111.56 22.76Q111.14 22.11 109.95 21.57Q108.76 21.02 106.45 20.50L106.45 20.50Q103.27 19.77 101.32 18.85Q99.38 17.95 98.51 16.56Q97.63 15.18 97.63 13.08L97.63 13.08Q97.63 10.84 98.73 9.16Q99.84 7.48 101.94 6.53Q104.04 5.59 106.94 5.59L106.94 5.59Q110.02 5.59 112.16 6.67Q114.29 7.76 115.50 9.65Q116.71 11.54 116.95 13.99L116.95 13.99L111.63 14.27Q111.53 12.97 110.93 12.01Q110.34 11.05 109.32 10.52Q108.31 10.00 106.87 10.00L106.87 10.00Q105.05 10.00 104.02 10.80Q102.99 11.61 102.99 12.90L102.99 12.90Q102.99 13.81 103.46 14.43Q103.93 15.04 105.03 15.49Q106.14 15.95 108.17 16.37L108.17 16.37Q111.63 17.07 113.64 18.14Q115.66 19.20 116.50 20.67Q117.34 22.14 117.34 24.04L117.34 24.04Q117.34 26.34 116.16 28.04Q114.99 29.74 112.84 30.65Q110.69 31.56 107.75 31.56ZM125.67 36.25L120.42 36.25L120.42 12.24L125.46 12.24L125.56 16.20L125.14 16.02Q125.84 13.99 127.42 12.90Q128.99 11.82 131.09 11.82L131.09 11.82Q133.72 11.82 135.47 13.11Q137.22 14.41 138.11 16.63Q139.00 18.85 139.00 21.62L139.00 21.62Q139.00 24.35 138.11 26.59Q137.22 28.83 135.45 30.13Q133.68 31.42 131.06 31.42L131.06 31.42Q129.69 31.42 128.50 30.91Q127.31 30.41 126.45 29.50Q125.60 28.59 125.21 27.32L125.21 27.32L125.67 27.04L125.67 36.25ZM129.62 27.39L129.62 27.39Q131.48 27.39 132.54 25.86Q133.61 24.31 133.61 21.62L133.61 21.62Q133.61 18.92 132.54 17.38Q131.48 15.84 129.62 15.84L129.62 15.84Q128.40 15.84 127.50 16.49Q126.61 17.14 126.14 18.43Q125.67 19.73 125.67 21.62L125.67 21.62Q125.67 23.51 126.14 24.80Q126.61 26.10 127.50 26.75Q128.40 27.39 129.62 27.39ZM146.46 31L141.21 31L141.21 12.24L146.46 12.24L146.46 31ZM146.53 9.93L141.10 9.93L141.10 5.73L146.53 5.73L146.53 9.93ZM155.49 31L150.24 31L150.24 12.24L155.21 12.24L155.38 17.70L155.00 17.59Q155.45 14.76 156.61 13.50Q157.76 12.24 159.79 12.24L159.79 12.24L161.51 12.24L161.51 16.58L159.79 16.58Q158.32 16.58 157.38 16.96Q156.43 17.35 155.96 18.19Q155.49 19.03 155.49 20.46L155.49 20.46L155.49 31ZM171.10 31.42L171.10 31.42Q168.23 31.42 166.11 30.21Q163.99 29.00 162.82 26.80Q161.65 24.59 161.65 21.62L161.65 21.62Q161.65 18.64 162.82 16.46Q163.99 14.27 166.09 13.04Q168.19 11.82 171.06 11.82L171.06 11.82Q173.86 11.82 175.93 13.04Q177.99 14.27 179.13 16.54Q180.27 18.82 180.27 21.97L180.27 21.97L180.27 23.02L167.07 23.02Q167.18 25.26 168.28 26.34Q169.38 27.43 171.20 27.43L171.20 27.43Q172.53 27.43 173.42 26.87Q174.32 26.31 174.70 25.16L174.70 25.16L179.99 25.47Q179.25 28.27 176.87 29.84Q174.49 31.42 171.10 31.42ZM167.07 19.80L167.07 19.80L174.88 19.80Q174.77 17.73 173.74 16.72Q172.71 15.70 171.06 15.70L171.06 15.70Q169.42 15.70 168.35 16.77Q167.28 17.84 167.07 19.80Z" fill="#141414"></path></g>
        
      </svg>