<svg width="151" height="28" viewBox="0 0 151 28" fill="none" xmlns="http://www.w3.org/2000/svg">
<path d="M24.5231 13.8698C24.5231 21.0623 19.1363 26.893 12.4912 26.893C5.84627 26.893 0.459381 21.0623 0.459381 13.8698C0.459381 6.67722 5.84627 0.846504 12.4912 0.846504C19.1363 0.846504 24.5231 6.67722 24.5231 13.8698Z" fill="#3BAB48"/>
<path d="M38.3598 13.8698C38.3598 21.0623 32.9729 26.893 26.3279 26.893C19.6829 26.893 14.296 21.0623 14.296 13.8698C14.296 6.67722 19.6829 0.846504 26.3279 0.846504C32.9729 0.846504 38.3598 6.67722 38.3598 13.8698Z" fill="#622ACB"/>
<path d="M19.4096 3.21341C22.5024 5.5702 24.5231 9.46465 24.5231 13.8698C24.5231 18.2748 22.5021 22.1682 19.4096 24.525C16.317 22.1682 14.2961 18.2748 14.296 13.8698C14.296 9.46465 16.3167 5.5702 19.4096 3.21341Z" fill="#DEF2E7"/>
<path d="M50.3955 22.4651H47.2131V6.8307H52.9463L56.0204 16.7414H56.1046L59.1547 6.8307H64.9059V22.4651H61.4107V11.2521H61.3024L57.8733 22.4651H53.9148L50.5038 11.2521H50.3955V22.4651ZM71.9386 22.693H71.6859C70.6311 22.693 69.7006 22.4695 68.8945 22.0223C68.0884 21.5752 67.4567 20.9219 66.9995 20.0623C66.5423 19.2028 66.3137 18.1653 66.3137 16.9498V16.3377C66.3137 15.1048 66.5483 14.0586 67.0175 13.1991C67.4908 12.3395 68.1345 11.6905 68.9487 11.2521C69.7628 10.8093 70.6953 10.5879 71.7461 10.5879H72.1491C73.1598 10.5879 74.0301 10.8006 74.76 11.226C75.49 11.6515 76.0515 12.2484 76.4445 13.0167C76.8375 13.7851 77.0341 14.6707 77.0341 15.6735V17.106H69.833C69.833 17.7442 69.8992 18.315 70.0315 18.8186C70.1639 19.3178 70.3804 19.7085 70.6812 19.9907C70.986 20.2729 71.3831 20.414 71.8724 20.414C72.3096 20.414 72.6785 20.3228 72.9793 20.1405C73.2801 19.9581 73.5147 19.6955 73.6832 19.3526C73.8516 19.0096 73.9359 18.595 73.9359 18.1088H77.01C77.01 18.9901 76.7954 19.778 76.3663 20.4726C75.9412 21.1628 75.3496 21.7054 74.5916 22.1005C73.8336 22.4955 72.9492 22.693 71.9386 22.693ZM69.833 15.374H73.7674C73.7674 14.5101 73.593 13.8763 73.244 13.4726C72.8911 13.0732 72.4279 12.8735 71.8543 12.8735C71.2768 12.8735 70.8016 13.084 70.4286 13.5051C70.0596 13.9349 69.8611 14.5578 69.833 15.374ZM83.0981 22.693H82.298C81.6523 22.693 81.0547 22.6084 80.5053 22.4391C79.9598 22.2741 79.4785 22.0353 79.0614 21.7228C78.6483 21.4102 78.3255 21.0391 78.0929 20.6093C77.8643 20.1752 77.75 19.6933 77.75 19.1637C77.75 19.0856 77.75 19.0161 77.75 18.9553C77.75 18.8946 77.756 18.8186 77.768 18.7274H80.5293C80.5133 18.7578 80.5053 18.7882 80.5053 18.8186C80.5053 18.849 80.5053 18.8794 80.5053 18.9098C80.5053 19.2744 80.6176 19.5674 80.8422 19.7888C81.0667 20.0059 81.3555 20.1643 81.7085 20.2642C82.0574 20.364 82.4223 20.414 82.8034 20.414C83.0841 20.414 83.3889 20.3771 83.7178 20.3033C84.0466 20.2251 84.3314 20.1014 84.572 19.9321C84.8087 19.7671 84.927 19.5392 84.927 19.2484C84.927 18.9315 84.8047 18.6905 84.56 18.5256C84.3154 18.3563 83.9885 18.226 83.5794 18.1349C83.1743 18.0437 82.7292 17.9569 82.2439 17.8744C81.7586 17.7876 81.2713 17.6812 80.782 17.5553C80.2887 17.4251 79.8395 17.2341 79.4344 16.9823C79.0253 16.7305 78.6985 16.3919 78.4538 15.9665C78.2092 15.5411 78.0869 14.9876 78.0869 14.306C78.0869 13.6809 78.2152 13.134 78.4719 12.6651C78.7326 12.1919 79.0915 11.8034 79.5487 11.4995C80.0059 11.1957 80.5153 10.9678 81.0768 10.8158C81.6383 10.6639 82.2138 10.5879 82.8034 10.5879H83.2846C83.818 10.5879 84.3454 10.6617 84.8668 10.8093C85.3842 10.9526 85.8534 11.1609 86.2746 11.4344C86.6957 11.7079 87.0326 12.0378 87.2852 12.4242C87.5379 12.8105 87.6642 13.2403 87.6642 13.7135C87.6642 13.8046 87.6602 13.9002 87.6522 14C87.6482 14.0998 87.6462 14.178 87.6462 14.2344H84.8428V14.0586C84.8428 13.9023 84.8006 13.7482 84.7164 13.5963C84.6322 13.4443 84.5059 13.3119 84.3374 13.1991C84.169 13.0862 83.9684 12.995 83.7358 12.9256C83.5072 12.8605 83.2385 12.8279 82.9297 12.8279C82.677 12.8279 82.4304 12.854 82.1897 12.906C81.9531 12.9581 81.7466 13.0298 81.5701 13.1209C81.3936 13.2121 81.2573 13.3228 81.161 13.453C81.0607 13.5789 81.0106 13.7178 81.0106 13.8698C81.0106 14.1736 81.1329 14.4015 81.3776 14.5535C81.6262 14.7054 81.9571 14.8248 82.3702 14.9116C82.7833 14.9941 83.2365 15.0701 83.7298 15.1395C84.2191 15.209 84.7104 15.3067 85.2037 15.4326C85.693 15.5628 86.1422 15.7538 86.5513 16.0056C86.9564 16.2574 87.2852 16.5981 87.5379 17.0279C87.7906 17.462 87.9169 18.0285 87.9169 18.7274C87.9169 19.4741 87.7845 20.1014 87.5198 20.6093C87.2511 21.1172 86.8882 21.5231 86.431 21.827C85.9778 22.1309 85.4624 22.3501 84.8849 22.4846C84.3113 22.6236 83.7158 22.693 83.0981 22.693ZM92.4469 22.4651H89.1381V6.05581H92.4469V12.2549C92.852 11.7079 93.3132 11.2933 93.8306 11.0112C94.3519 10.729 94.9435 10.5879 95.6053 10.5879C96.3071 10.5879 96.9207 10.7398 97.4461 11.0437C97.9715 11.3476 98.3846 11.773 98.6854 12.32C98.9902 12.867 99.1426 13.5138 99.1426 14.2605V22.4651H95.8339V15.0809C95.8339 14.4602 95.6835 13.9891 95.3827 13.6679C95.0819 13.3467 94.6928 13.186 94.2156 13.186C93.8907 13.186 93.5959 13.2772 93.3312 13.4595C93.0625 13.6419 92.848 13.8828 92.6875 14.1823C92.5271 14.4775 92.4469 14.8161 92.4469 15.1981V22.4651ZM106.109 22.693C105.07 22.693 104.116 22.5259 103.246 22.1916C102.375 21.8574 101.677 21.3321 101.152 20.6158C100.627 19.9039 100.364 18.9705 100.364 17.8158C100.364 17.7377 100.364 17.6574 100.364 17.5749C100.364 17.4924 100.37 17.4056 100.382 17.3144H103.625C103.612 17.3752 103.606 17.4316 103.606 17.4837C103.606 17.5402 103.606 17.6053 103.606 17.6791C103.606 18.0871 103.701 18.4474 103.889 18.76C104.078 19.0726 104.358 19.3157 104.731 19.4893C105.104 19.6673 105.578 19.7563 106.151 19.7563C106.769 19.7563 107.268 19.6933 107.649 19.5674C108.026 19.4459 108.299 19.2614 108.467 19.014C108.636 18.7622 108.72 18.454 108.72 18.0893C108.72 17.6812 108.576 17.3535 108.287 17.106C107.998 16.8629 107.615 16.6654 107.138 16.5135C106.665 16.3659 106.139 16.2226 105.562 16.0837C104.984 15.9448 104.413 15.7733 103.847 15.5693C103.278 15.3653 102.754 15.0961 102.277 14.7619C101.8 14.4276 101.415 13.9826 101.122 13.427C100.825 12.8713 100.677 12.1681 100.677 11.3172C100.677 10.271 100.943 9.39845 101.477 8.69953C102.01 8.00062 102.712 7.47535 103.582 7.12372C104.453 6.77643 105.413 6.60279 106.464 6.60279C107.491 6.60279 108.421 6.76124 109.255 7.07814C110.094 7.39938 110.761 7.8986 111.259 8.57581C111.756 9.24868 112.005 10.1169 112.005 11.1805V11.48H108.804V11.2716C108.804 10.894 108.716 10.5684 108.54 10.2949C108.363 10.0214 108.104 9.80868 107.763 9.65674C107.419 9.50481 107.001 9.42884 106.512 9.42884C106.035 9.42884 105.624 9.48093 105.279 9.58512C104.934 9.69364 104.671 9.84992 104.491 10.054C104.306 10.258 104.214 10.5271 104.214 10.8614C104.214 11.2868 104.362 11.6211 104.659 11.8642C104.952 12.1073 105.337 12.3026 105.814 12.4502C106.292 12.5935 106.821 12.7346 107.403 12.8735C107.984 13.0081 108.564 13.1709 109.141 13.3619C109.719 13.5485 110.248 13.8112 110.729 14.1498C111.215 14.4797 111.602 14.916 111.89 15.4586C112.175 15.9969 112.318 16.6763 112.318 17.4967C112.318 18.7426 112.049 19.7454 111.511 20.5051C110.97 21.2648 110.23 21.8205 109.292 22.1721C108.349 22.5194 107.288 22.693 106.109 22.693ZM116.932 26.5935H113.629V10.8158H116.216L116.577 12.2744C116.886 11.8056 117.303 11.4084 117.828 11.0828C118.354 10.7529 118.981 10.5879 119.711 10.5879C120.553 10.5879 121.307 10.7833 121.973 11.174C122.639 11.5603 123.17 12.1789 123.567 13.0298C123.96 13.8806 124.157 14.9898 124.157 16.3572V16.8326C124.157 18.1262 123.96 19.2093 123.567 20.0819C123.17 20.9588 122.651 21.6121 122.009 22.0419C121.359 22.476 120.658 22.693 119.904 22.693C119.142 22.693 118.52 22.5454 118.039 22.2502C117.553 21.9507 117.184 21.5817 116.932 21.1433V26.5935ZM118.803 20.3879C119.156 20.3879 119.468 20.2902 119.741 20.0949C120.014 19.8995 120.233 19.6152 120.397 19.2419C120.557 18.8685 120.638 18.4322 120.638 17.933V15.4651C120.638 14.9051 120.557 14.4363 120.397 14.0586C120.233 13.6766 120.014 13.3901 119.741 13.1991C119.468 13.0124 119.156 12.9191 118.803 12.9191C118.466 12.9191 118.155 13.0124 117.87 13.1991C117.581 13.3901 117.353 13.6722 117.184 14.0456C117.016 14.4146 116.932 14.8878 116.932 15.4651V17.933C116.932 18.4496 117.012 18.8881 117.172 19.2484C117.333 19.6174 117.557 19.8995 117.846 20.0949C118.135 20.2902 118.454 20.3879 118.803 20.3879ZM128.831 22.4651H125.523V10.8158H128.831V22.4651ZM128.849 8.74512H125.48V6.05581H128.849V8.74512ZM133.927 22.4651H130.66V10.8158H133.145L133.524 12.5023C133.568 12.4415 133.648 12.3091 133.764 12.1051C133.885 11.9011 134.065 11.6819 134.306 11.4474C134.542 11.2087 134.837 11.0068 135.19 10.8419C135.539 10.6726 135.952 10.5879 136.429 10.5879C137.143 10.5879 137.727 10.7333 138.18 11.0242C138.629 11.3107 138.962 11.7253 139.179 12.2679C139.395 12.8062 139.504 13.4465 139.504 14.1888C139.504 14.3581 139.498 14.5535 139.486 14.7749C139.469 14.9963 139.455 15.196 139.443 15.374H136.706V14.8726C136.706 14.6164 136.66 14.3603 136.568 14.1042C136.476 13.8437 136.331 13.6332 136.135 13.4726C135.938 13.3119 135.671 13.2316 135.335 13.2316C135.082 13.2316 134.865 13.2859 134.685 13.3944C134.5 13.4986 134.352 13.6397 134.24 13.8177C134.127 13.9913 134.047 14.1802 133.999 14.3842C133.951 14.5882 133.927 14.7966 133.927 15.0093V22.4651ZM145.507 22.693H145.249C144.198 22.693 143.27 22.4695 142.463 22.0223C141.657 21.5752 141.026 20.9219 140.568 20.0623C140.111 19.2028 139.883 18.1653 139.883 16.9498V16.3377C139.883 15.1048 140.117 14.0586 140.586 13.1991C141.06 12.3395 141.703 11.6905 142.518 11.2521C143.332 10.8093 144.264 10.5879 145.315 10.5879H145.718C146.729 10.5879 147.599 10.8006 148.329 11.226C149.059 11.6515 149.62 12.2484 150.013 13.0167C150.406 13.7851 150.603 14.6707 150.603 15.6735V17.106H143.402C143.402 17.7442 143.468 18.315 143.6 18.8186C143.733 19.3178 143.949 19.7085 144.25 19.9907C144.551 20.2729 144.948 20.414 145.441 20.414C145.874 20.414 146.243 20.3228 146.548 20.1405C146.849 19.9581 147.084 19.6955 147.252 19.3526C147.421 19.0096 147.505 18.595 147.505 18.1088H150.579C150.579 18.9901 150.364 19.778 149.935 20.4726C149.506 21.1628 148.914 21.7054 148.16 22.1005C147.398 22.4955 146.514 22.693 145.507 22.693ZM143.402 15.374H147.336C147.336 14.5101 147.16 13.8763 146.807 13.4726C146.458 13.0732 145.995 12.8735 145.417 12.8735C144.844 12.8735 144.37 13.084 143.997 13.5051C143.628 13.9349 143.43 14.5578 143.402 15.374Z" fill="white"/>
</svg>
