<svg width="40" height="40" viewBox="0 0 40 40" fill="none" xmlns="http://www.w3.org/2000/svg">
<path d="M10.8333 33.3334C8.30556 33.3334 6.14611 32.4584 4.355 30.7084C2.56389 28.9584 1.66778 26.8195 1.66667 24.2917C1.66667 22.1251 2.31945 20.1945 3.625 18.5001C4.93056 16.8056 6.63889 15.7223 8.75 15.2501C9.44445 12.6945 10.8333 10.6251 12.9167 9.04175C15 7.45842 17.3611 6.66675 20 6.66675C23.25 6.66675 26.0072 7.79897 28.2717 10.0634C30.5361 12.3279 31.6678 15.0845 31.6667 18.3334C33.5833 18.5556 35.1739 19.3823 36.4383 20.8134C37.7028 22.2445 38.3344 23.9179 38.3333 25.8334C38.3333 27.9167 37.6044 29.6879 36.1467 31.1467C34.6889 32.6056 32.9178 33.3345 30.8333 33.3334H10.8333ZM10.8333 30.0001H30.8333C32 30.0001 32.9861 29.5973 33.7917 28.7917C34.5972 27.9862 35 27.0001 35 25.8334C35 24.6667 34.5972 23.6806 33.7917 22.8751C32.9861 22.0695 32 21.6667 30.8333 21.6667H28.3333V18.3334C28.3333 16.0279 27.5206 14.0623 25.895 12.4367C24.2694 10.8112 22.3044 9.99897 20 10.0001C17.6956 10.0012 15.7306 10.814 14.105 12.4384C12.4794 14.0629 11.6667 16.0279 11.6667 18.3334H10.8333C9.22222 18.3334 7.84722 18.9029 6.70833 20.0417C5.56945 21.1806 5 22.5556 5 24.1667C5 25.7779 5.56945 27.1529 6.70833 28.2917C7.84722 29.4306 9.22222 30.0001 10.8333 30.0001Z" fill="white"/>
</svg>
