<svg width="40" height="40" viewBox="0 0 40 40" fill="none" xmlns="http://www.w3.org/2000/svg">
<path d="M17.4167 25.8334C18.0833 26.5001 18.9445 26.8267 20 26.8134C21.0556 26.8001 21.8333 26.4179 22.3333 25.6667L29.375 15.1251C29.625 14.7362 29.5906 14.3817 29.2717 14.0617C28.9528 13.7417 28.5983 13.7073 28.2083 13.9584L17.6667 21.0001C16.9167 21.5001 16.5211 22.264 16.48 23.2917C16.4389 24.3195 16.7511 25.1667 17.4167 25.8334ZM20 6.66675C21 6.66675 21.9861 6.75008 22.9583 6.91675C23.9306 7.08341 24.875 7.3473 25.7917 7.70841C26.2361 7.87508 26.7083 8.18786 27.2083 8.64675C27.7083 9.10564 27.8472 9.54286 27.625 9.95841C27.4028 10.374 26.9028 10.6517 26.125 10.7917C25.3472 10.9317 24.7222 10.9179 24.25 10.7501C23.5556 10.5001 22.8545 10.3129 22.1467 10.1884C21.4389 10.064 20.7233 10.0012 20 10.0001C16.3056 10.0001 13.1595 11.299 10.5617 13.8967C7.9639 16.4945 6.66557 19.6401 6.66668 23.3334C6.66668 24.5001 6.82668 25.6529 7.14668 26.7917C7.46668 27.9306 7.91779 29.0001 8.50001 30.0001H31.5C32.1389 28.9445 32.6045 27.8473 32.8967 26.7084C33.1889 25.5695 33.3345 24.389 33.3333 23.1667C33.3333 22.4445 33.2706 21.7362 33.145 21.0417C33.0195 20.3473 32.8322 19.6667 32.5833 19.0001C32.4167 18.5279 32.3889 18.0695 32.5 17.6251C32.6111 17.1806 32.8611 16.8056 33.25 16.5001C33.6111 16.2223 34.0072 16.139 34.4383 16.2501C34.8695 16.3612 35.1678 16.6112 35.3333 17.0001C35.75 17.9723 36.0695 18.9656 36.2917 19.9801C36.5139 20.9945 36.6389 22.029 36.6667 23.0834C36.6945 24.6667 36.5139 26.1806 36.125 27.6251C35.7361 29.0695 35.1667 30.4445 34.4167 31.7501C34.1111 32.2501 33.6945 32.639 33.1667 32.9167C32.6389 33.1945 32.0833 33.3334 31.5 33.3334H8.50001C7.91668 33.3334 7.36112 33.1945 6.83334 32.9167C6.30557 32.639 5.8889 32.2501 5.58334 31.7501C4.86112 30.5001 4.30557 29.174 3.91668 27.7717C3.52779 26.3695 3.33334 24.8901 3.33334 23.3334C3.33334 21.0279 3.77112 18.8684 4.64668 16.8551C5.52223 14.8417 6.71668 13.0779 8.23001 11.5634C9.74334 10.049 11.5139 8.85453 13.5417 7.98008C15.5695 7.10564 17.7222 6.66786 20 6.66675Z" fill="white"/>
</svg>
