<svg data-logo="logo" xmlns="http://www.w3.org/2000/svg" viewBox="0 0 64 41">
        <g style="opacity: 1;" id="logogram" transform="translate(0, 0) rotate(0)"><path d="M40.7636 20.3C40.7636 31.3457 31.8093 40.3 20.7636 40.3C9.71798 40.3 0.763611 31.3457 0.763611 20.3C0.763611 9.2543 9.71798 0.299988 20.7636 0.299988C31.8093 0.299988 40.7636 9.2543 40.7636 20.3Z" fill="#22C55E"></path><path d="M63.7636 20.3C63.7636 31.3457 54.8092 40.3 43.7636 40.3C32.718 40.3 23.7636 31.3457 23.7636 20.3C23.7636 9.2543 32.718 0.299988 43.7636 0.299988C54.8092 0.299988 63.7636 9.2543 63.7636 20.3Z" fill="#5B21B6"></path><path d="M32.2636 3.93488C37.4047 7.55424 40.7636 13.535 40.7636 20.3001C40.7636 27.0648 37.4042 33.044 32.2636 36.6634C27.123 33.044 23.7637 27.0648 23.7636 20.3001C23.7636 13.535 27.1225 7.55424 32.2636 3.93488Z" fill="#0F172A"></path></g>
        <g style="opacity: 1;" id="logotype" transform="translate(64, 20.5)"></g>
        
      </svg>